<?xml version="1.0" encoding="utf-8"?>
<!-- Generator: Adobe Illustrator 23.0.0, SVG Export Plug-In . SVG Version: 6.00 Build 0)  -->
<svg version="1.1" id="Layer_1" xmlns="http://www.w3.org/2000/svg" xmlns:xlink="http://www.w3.org/1999/xlink" x="0px" y="0px"
	 viewBox="0 0 547.47 270.28" style="enable-background:new 0 0 547.47 270.28;" xml:space="preserve">
<style type="text/css">
	.st0{fill:#073042;}
	.st1{fill:#FFFFFF;}
	.st2{fill:#3DDB83;}
</style>
<path class="st0" d="M70.63,234.65h403.95c19.25,0,35-15.75,35-35V70.63c0-19.25-15.75-35-35-35H70.63c-19.25,0-35,15.75-35,35
	v129.02C35.63,218.9,51.38,234.65,70.63,234.65z"/>
<g>
	<path class="st1" d="M97.62,89.12h3.3l5.75,18.56l5.98-18.56h2.72l6.02,18.56l5.71-18.56h3.37l-7.55,24.14h-2.75l-6.12-18.97
		l-6.12,18.97h-2.79L97.62,89.12z"/>
	<path class="st1" d="M139.26,113.6c-5.13,0-8.91-3.94-8.91-8.84s3.77-8.84,8.91-8.84c5.1,0,8.87,3.94,8.87,8.84
		S144.36,113.6,139.26,113.6z M139.26,110.88c3.54,0,5.88-2.72,5.88-6.12s-2.35-6.12-5.88-6.12s-5.92,2.72-5.92,6.12
		S135.73,110.88,139.26,110.88z"/>
	<path class="st1" d="M151.47,96.26h2.92v3.3c0.68-2.18,2.79-3.47,4.76-3.47c0.44,0,0.85,0.03,1.33,0.14v3.03
		c-0.54-0.2-1.02-0.27-1.6-0.27c-2.14,0-4.49,1.87-4.49,5.85v8.43h-2.92V96.26z"/>
	<path class="st1" d="M163.1,87.76h2.92v15.13l7.41-6.63h3.88l-8.36,7.51l10.23,9.49h-3.94l-9.21-8.5v8.5h-2.92V87.76z"/>
	<path class="st1" d="M185.81,113.6c-3.64,0-6.66-1.84-6.9-5.27h2.99c0.41,2.07,2.18,2.79,3.94,2.79c1.84,0,3.26-0.75,3.26-2.24
		c0-1.36-0.82-2.18-2.82-2.72l-2.45-0.65c-2.92-0.75-4.39-2.58-4.39-5c0-2.82,2.45-4.59,5.88-4.59c3.64,0,5.88,2.14,6.19,4.86h-2.92
		c-0.44-1.5-1.67-2.41-3.26-2.41c-1.63,0-2.92,0.82-2.92,2.11c0,1.26,0.78,1.97,2.58,2.45l2.72,0.71c2.82,0.71,4.35,2.48,4.35,5.03
		C192.07,112.03,189.35,113.6,185.81,113.6z"/>
	<path class="st1" d="M212.33,101.02l-4.22,12.24h-2.58l-5.78-17h3.06l4.11,12.41l4.25-12.41h2.24l4.25,12.41l4.11-12.41h3.09
		l-5.78,17h-2.58L212.33,101.02z"/>
	<path class="st1" d="M228.68,91.7c-1.16,0-2.11-0.92-2.11-2.07c0-1.12,0.95-2.07,2.11-2.07s2.04,0.95,2.04,2.07
		C230.72,90.79,229.84,91.7,228.68,91.7z M227.19,96.26h2.92v17h-2.92V96.26z"/>
	<path class="st1" d="M241.37,113.43c-2.96,0-5.2-1.67-5.2-5.2v-9.28h-3.6v-2.69h3.6v-4.73h2.92v4.73h4.9v2.69h-4.9v8.91
		c0,2.18,0.99,2.89,2.82,2.89c0.71,0,1.53-0.14,2.07-0.34v2.62C243.27,113.26,242.42,113.43,241.37,113.43z"/>
	<path class="st1" d="M246.91,87.76h2.92v11.12c1.16-2.01,3.2-2.96,5.41-2.96c3.81,0,6.43,2.65,6.43,6.87v10.47h-2.89v-10.03
		c0-2.86-1.63-4.62-4.01-4.62c-2.75,0-4.93,2.24-4.93,6.22v8.43h-2.92V87.76z"/>
</g>
<g>
	<g>
		<path class="st1" d="M115.22,155.11c-6.23,0-10.42,4.9-10.42,11.19c0,6.29,4.2,11.19,10.42,11.19c6.23,0,10.42-4.9,10.42-11.19
			C125.64,160.01,121.44,155.11,115.22,155.11 M113.82,148.12c5.04,0,9.23,2.59,11.19,5.39v-4.69h7.69v34.97h-5.51
			c-1.21,0-2.19-0.98-2.19-2.19v-2.5c-1.96,2.8-6.16,5.39-11.19,5.39c-9.58,0-16.86-8.18-16.86-18.19
			C96.96,156.3,104.24,148.12,113.82,148.12"/>
		<path class="st1" d="M141.44,148.82h7.7v4.76c2.1-3.5,6.09-5.46,10.63-5.46c8.11,0,13.36,5.74,13.36,14.62v21.05h-5.51
			c-1.21,0-2.19-0.98-2.19-2.19V164c0-5.53-2.8-8.88-7.27-8.88c-5.11,0-9.02,3.99-9.02,11.47v17.21h-5.51
			c-1.21,0-2.19-0.98-2.19-2.19V148.82z"/>
		<path class="st1" d="M197.47,155.11c-6.22,0-10.42,4.9-10.42,11.19c0,6.29,4.2,11.19,10.42,11.19c6.22,0,10.42-4.9,10.42-11.19
			C207.89,160.01,203.69,155.11,197.47,155.11 M196.07,148.12c5.04,0,9.23,2.59,11.19,5.39v-22.17h7.69v52.45h-5.51
			c-1.21,0-2.19-0.98-2.19-2.19v-2.5c-1.96,2.8-6.16,5.39-11.19,5.39c-9.58,0-16.86-8.18-16.86-18.19
			C179.21,156.3,186.49,148.12,196.07,148.12"/>
		<path class="st1" d="M223.69,148.82h7.69v6.23c1.33-3.99,5.25-6.58,9.23-6.58c0.98,0,1.96,0.07,3.01,0.28v7.9
			c-1.33-0.42-2.45-0.63-3.85-0.63c-4.41,0-8.39,3.71-8.39,10.7v17.06h-5.51c-1.21,0-2.19-0.98-2.19-2.19V148.82z"/>
		<path class="st1" d="M264.37,177.36c6.15,0,10.49-4.83,10.49-11.05c0-6.22-4.34-11.05-10.49-11.05c-6.23,0-10.56,4.83-10.56,11.05
			C253.81,172.53,258.15,177.36,264.37,177.36 M264.37,184.49c-10.35,0-18.32-8.04-18.32-18.18c0-10.14,7.97-18.19,18.32-18.19
			c10.35,0,18.32,8.04,18.32,18.19C282.69,176.45,274.72,184.49,264.37,184.49"/>
		<path class="st1" d="M288.93,148.82h7.69v34.97h-5.5c-1.21,0-2.19-0.98-2.19-2.19V148.82z M292.78,141.2
			c-2.8,0-5.17-2.31-5.17-5.18c0-2.8,2.38-5.11,5.17-5.11c2.87,0,5.11,2.31,5.11,5.11C297.88,138.89,295.64,141.2,292.78,141.2"/>
		<path class="st1" d="M321.2,155.11c-6.22,0-10.42,4.9-10.42,11.19c0,6.29,4.2,11.19,10.42,11.19c6.22,0,10.42-4.9,10.42-11.19
			C331.63,160.01,327.43,155.11,321.2,155.11 M319.8,148.12c5.04,0,9.23,2.59,11.19,5.39v-22.17h7.69v52.45h-5.51
			c-1.21,0-2.19-0.98-2.19-2.19v-2.5c-1.96,2.8-6.16,5.39-11.19,5.39c-9.58,0-16.86-8.18-16.86-18.19
			C302.95,156.3,310.22,148.12,319.8,148.12"/>
	</g>
	<path class="st2" d="M424.98,147.19l7.76-13.44c0.44-0.77,0.18-1.76-0.59-2.21c-0.77-0.45-1.76-0.18-2.21,0.59l-7.86,13.61
		c-6.01-2.74-12.76-4.27-19.96-4.27c-7.2,0-13.95,1.53-19.96,4.27l-7.86-13.61c-0.45-0.77-1.43-1.04-2.21-0.59
		c-0.77,0.45-1.04,1.43-0.59,2.21l7.76,13.44c-13.33,7.25-22.45,20.74-23.78,36.69h93.28C447.43,167.94,438.31,154.44,424.98,147.19
		 M380.66,170.59c-2.14,0-3.88-1.74-3.88-3.89s1.74-3.88,3.88-3.88c2.14,0,3.88,1.74,3.88,3.88S382.8,170.59,380.66,170.59
		 M423.59,170.59c-2.14,0-3.88-1.74-3.88-3.89s1.74-3.88,3.88-3.88c2.14,0,3.88,1.74,3.88,3.88S425.73,170.59,423.59,170.59"/>
</g>
</svg>
